# xmcd CD database file
#
# Track frame offsets:
#	150
#	37590
#	61180
#	95430
#	139215
#	165420
#	188250
#	218810
#	229470
#	244450
#	271985
#	301740
#
# Disc length: 4252 seconds
#
# Revision: 0
# Processed by: cddbd v1.5.1PL0 Copyright (c) Steve Scherf et al.
# Submitted via: CDex 1.51
#
DISCID=98109a0c
DTITLE=外道 - 最後の曼荼羅屋根裏伝説`76<ぶっこんでまんだら編>76.7.6 吉祥寺曼荼羅
DYEAR=2003
DGENRE=Rock
TTITLE0=龍神〜空に舞う〜
TTITLE1=45$Woman
TTITLE2=UNDERSTAND？
TTITLE3=Yellow Monkey
TTITLE4=黒い影
TTITLE5=乞食のパーティー
TTITLE6=コウモリ男
TTITLE7=外道
TTITLE8=悪魔のベイビー
TTITLE9=I CAN SHOUT〜宇宙からの叫び?
TTITLE10=香り
TTITLE11=何？
EXTD=YEAR: 2003
EXTT0=
EXTT1=
EXTT2=
EXTT3=
EXTT4=
EXTT5=
EXTT6=
EXTT7=
EXTT8=
EXTT9=
EXTT10=
EXTT11=
PLAYORDER=
